#!OML:ASF E:/inclinewalkrobotboard/Project1/Captureday1/Session1/subject1.ASF
:FULLY-SPECIFIED
:DEGREES
13
root 0 0 0 -2.740823244782106 -0.2877462675863587 0.698599280334369
lowerback 10.363778880608937 -0.970878055193355 -2.462528506018983
upperback 0.5728528874713783 -1.467634582863945 1.6684458581358554
thorax -5.1172452660202685 -0.6549759036901794 3.3306972360381293
lowerneck -16.87072644823296 -2.6381650046908574 -2.214919546980667
upperneck 19.563474149980202 -3.2053676164638976 0.47473233443343243
head 8.945675242591875 -1.6095746600964582 0.11154090349952206
rclavicle -5.618247076606267E-16 -2.557756083686238E-16
rhumerus -27.271822255584908 -16.312788341821644 -77.66603833744756
rradius 28.358389298155455
rwrist 4.763340542161455
rhand -17.979892162133744 21.164284663166328
rfingers 7.1250200000000055
rthumb 8.293224079601782 -8.625716298929834
lclavicle -8.243303788762687E-16 -1.707691721690102E-16
lhumerus -27.729750302776786 -4.360012834481651 82.11059440089625
lradius 37.81172231005808
lwrist 6.214747567344357
lhand -23.9844557606378 24.86930712780844
lfingers 7.1225277645378196
lthumb 2.4513383524346555 53.95511755549508
rfemur -4.167057570605438 8.702344532899053 29.83165359625032
rtibia 22.045683108409417
rfoot -16.325359437304193 -7.195422608959808
rtoes -0.5136695559548023
lfemur -1.026672314370657 -1.817569874745371 -22.811954407601203
ltibia 32.11540711694077
lfoot -9.086442986671837 -3.800073299152425
ltoes -5.731567944172414
14
root 0 0 0 -2.7441247035609333 -0.2561896796397445 0.7339449082039569
lowerback 10.363832542666986 -0.9876854540415306 -2.502548917473227
upperback 0.5716446889577487 -1.4943999363338913 1.669962255995784
thorax -5.118737119505866 -0.6673538233786556 3.3587142394439593
lowerneck -16.878452515237594 -2.636064255195444 -2.2155505170072853
upperneck 19.57085844510392 -3.201717472741766 0.47039201933462405
head 8.948476373380622 -1.6077778401081027 0.11074736516268757
rclavicle -5.76731268376331E-16 -2.451534932084254E-16
rhumerus -27.038615139449277 -16.09806493531687 -77.6182051452453
rradius 28.571431152940573
rwrist 4.810677177109159
rhand -18.018515561062447 20.995949182427125
rfingers 7.125020000000003
rthumb 8.257566440567519 -8.791003752653854
lclavicle -8.190466490146541E-16 -1.6735200870291287E-16
lhumerus -27.79344224463327 -4.286952055291302 82.1144837666347
lradius 37.66975272421192
lwrist 6.200479223596366
lhand -24.026807644726908 24.843717579955275
lfingers 7.122570590982465
lthumb 2.410584052167959 53.94428719963068
rfemur -4.485841861807593 8.153646737595567 29.83193409845286
rtibia 24.818701087270973
rfoot -15.06878219238654 -6.795487708575811
rtoes 0.6109389518199748
lfemur -2.5057774083206326 -1.4887302228856452 -21.927707962551224
ltibia 34.90358055804509
lfoot -7.531047520001276 -4.64070175603513
ltoes -5.937108468438157
15
root 0 0 0 -2.7270265937073406 -0.18467888733938054 0.5519806912093362
lowerback 10.373626665688205 -0.9337902567716173 -2.309651409028304
upperback 0.5442883174181752 -1.3990207534715249 1.6978924713235815
thorax -5.1535929474381446 -0.6231118863949143 3.2663345566382955
lowerneck -17.01051109386198 -2.64555697945115 -2.150456967639383
upperneck 19.64816247824042 -3.212010787639308 0.39430743821567926
head 8.994616110344165 -1.610785317060526 0.0711919643730563
rclavicle -5.845198118140704E-16 -2.3974270120020654E-16
rhumerus -26.915952193977812 -15.99024610120532 -77.59360153427531
rradius 28.679791672885628
rwrist 4.835002503075013
rhand -18.03923586635711 20.90927790524222
rfingers 7.125020000000002
rthumb 8.238675566804108 -8.876267178579226
lclavicle -8.095817564828105E-16 -1.6513348798182416E-16
lhumerus -27.914274245235333 -4.144093948175925 82.12117110092716
lradius 37.40349970969873
lwrist 6.176938797589276
lhand -24.11057614048655 24.79781200456384
lfingers 7.122657799293301
lthumb 2.3311133482230186 53.92202869870187
rfemur -4.37731994404785 7.739968561735935 30.07312995046294
rtibia 26.795757809650407
rfoot -14.182358042276011 -6.404702104714259
rtoes 1.5935485163468677
lfemur -5.67482527417641 -0.9481485356782918 -20.159215987682533
ltibia 39.58556430523372
lfoot -4.861693351124856 -5.8360311322347105
ltoes -6.122746064556755
16
root 0 0 0 -2.6873830746013123 -0.13221258773919153 0.11458656117284993
lowerback 10.392880886373707 -0.7898478385397799 -1.839719034953371
upperback 0.496286928210258 -1.150937732869691 1.7474196038871597
thorax -5.215092506974745 -0.5081086971715427 3.0195875151462097
lowerneck -17.2369532612695 -2.6685646981064997 -2.026836072568819
upperneck 19.778107482026673 -3.2399307960596375 0.2607060091507911
head 9.0743694052836 -1.6203940451990988 -0.0016585148662393578
rclavicle -5.84684756660296E-16 -2.414380494529062E-16
rhumerus -26.92263001403853 -16.00178233159128 -77.59660375778465
rradius 28.669128729441084
rwrist 4.833233286404569
rhand -18.038384374090036 20.915959277675494
rfingers 7.125020000000002
rthumb 8.2395742012204 -8.8699306624471
lclavicle -7.96422243766827E-16 -1.6813162459083366E-16
lhumerus -28.08919885042593 -3.94449973962956 82.13257855462058
lradius 37.027145187600155
lwrist 6.142458357207987
lhand -24.22716832943759 24.73160834622768
lfingers 7.122765028870163
lthumb 2.220934920782506 53.889597816571325
rfemur -3.9055922452314924 7.5333323532564105 30.481446959135088
rtibia 27.663621192433197
rfoot -13.813336803883905 -6.103611111856094
rtoes 2.2547925965457347
lfemur -10.658726516549763 -0.19810760861955612 -17.448383364383634
ltibia 46.14772452180664
lfoot -1.1242106406221595 -7.29825505882498
ltoes -6.27888999128461
17
root 0 0 0 -2.5727694792098315 -0.35662192347817623 -1.1876027908922664
lowerback 10.438126298999219 -0.3190225958611498 -0.4249100888550885
upperback 0.4112820618266477 -0.3576637527595736 1.8393563955476138
thorax -5.32645276427783 -0.14095073467192898 2.2123214575881582
lowerneck -17.616376675829244 -2.7427396534744433 -1.7682544454237004
upperneck 19.988053278107706 -3.343618460099691 0.02748995571531765
head 9.209452086710646 -1.6581959366278638 -0.1448447158513244
rclavicle -5.735479237668327E-16 -2.556524359125578E-16
rhumerus -27.1109128860421 -16.17559062421092 -77.64003235629107
rradius 28.497094252195712
rwrist 4.795238361961165
rhand -18.006545580032277 21.051272654439952
rfingers 7.125020000000004
rthumb 8.268025289403443 -8.736736483766673
lclavicle -7.705319470693661E-16 -1.8207975219926368E-16
lhumerus -28.468100179894375 -3.5305645566440127 82.15962647212699
lradius 36.22492286886359
lwrist 6.06234762191492
lhand -24.46584275531786 24.585504293163815
lfingers 7.122955666154398
lthumb 1.9941096323671186 53.82079762953246
rfemur -2.809750538674507 7.634327709834395 31.21198751210042
rtibia 26.83859138198033
rfoot -14.233894212258477 -5.918307906604977
rtoes 2.494842683696853
lfemur -18.193644924227456 0.6846325651936822 -13.488194242257075
ltibia 54.23781859301004
lfoot 3.6000240875718106 -8.638182565185929
ltoes -6.19379927154355
18
root 0 0 0 -2.4670002541251197 -0.9476703912957873 -2.3986392138797563
lowerback 10.46767900649262 0.16668566215539093 0.9052564306495063
upperback 0.38447634543273645 0.4413855473966969 1.8709872257185594
thorax -5.365382136836621 0.2276256256787833 1.3907473252378713
lowerneck -17.705225524314947 -2.824844689248675 -1.628486870682714
upperneck 20.005420464058595 -3.4734574049259126 -0.025468007190777797
head 9.236750734696196 -1.7075486943352196 -0.20670737659566596
rclavicle -5.735893999917564E-16 -2.6475000852432535E-16
rhumerus -27.142968181356085 -16.191338143778367 -77.65709912400618
rradius 28.473845910583172
rwrist 4.786771137614497
rhand -17.99793254808022 21.072626563080732
rfingers 7.125020000000004
rthumb 8.274453200263887 -8.715767215072923
lclavicle -7.567584518166725E-16 -1.9078561712804704E-16
lhumerus -28.660034470366448 -3.3138454969912985 82.17247694563876
lradius 35.808628545218696
lwrist 6.024288124853928
lhand -24.589351772580343 24.513757976755894
lfingers 7.123077654829322
lthumb 1.877936141924268 53.78780886685022
rfemur -2.5510903527200632 7.684964651385835 31.363830857564306
rtibia 26.548962293738683
rfoot -14.39637523036655 -5.901701529312175
rtoes 2.4999346933096263
lfemur -20.112947928826483 0.6968961927455584 -12.567126457012119
ltibia 54.74812330473404
lfoot 3.8892052562591637 -8.125396954298134
ltoes -5.960102799990245
19
root 0 0 0 -2.348301064576156 -1.9548826275887574 -3.741246689785614
lowerback 10.488302554088577 0.7636368408304943 2.393001362350418
upperback 0.3881449624931532 1.4020173556408073 1.8601084259847593
thorax -5.3657553495218915 0.668872417633307 0.4144984868566774
lowerneck -17.633902943730206 -2.940908649993788 -1.5414614489653848
upperneck 19.878689962845737 -3.666451182270066 0.05236073825961629
head 9.192682790441431 -1.7844295051812784 -0.2180796302532717
rclavicle -5.830476971798598E-16 -2.6397675555321977E-16
rhumerus -27.074921618034995 -16.116696935577103 -77.6508048627752
rradius 28.544632278916996
rwrist 4.798311024814797
rhand -18.00722036346093 21.0217883832463
rfingers 7.125020000000004
rthumb 8.265089978758954 -8.76564273681521
lclavicle -7.521854327082064E-16 -1.9336232898127363E-16
lhumerus -28.86774670817055 -3.078436482489476 82.18458961911278
lradius 35.36020283909201
lwrist 5.981142601530797
lhand -24.72130364016324 24.43446525796472
lfingers 7.1231998940423455
lthumb 1.7541137233320114 53.75059676784221
rfemur -2.54750237504971 7.643471172426125 31.371836320425555
rtibia 26.784411165704284
rfoot -14.311208138466077 -5.869223830969752
rtoes 2.6036564483613915
lfemur -20.695481570712655 0.4215306429156769 -12.442805934064376
ltibia 52.804561742656496
lfoot 2.813142497221788 -6.8989040341612
ltoes -5.55866693731547
20
root 0 0 0 -2.232323298798887 -3.3764920152175186 -5.0722299442284156
lowerback 10.493276584758597 1.4340075243961667 3.875704207947697
upperback 0.4224790783948431 2.45516806610176 1.793022819609778
thorax -5.3213234267872975 1.150097936353012 -0.633475264419107
lowerneck -17.394192721018484 -3.092940568546574 -1.5273778810734795
upperneck 19.597732037285837 -3.9265653566152947 0.28831347357605797
head 9.068557669774549 -1.892526791064141 -0.16326841266355085
rclavicle -5.903423621652682E-16 -2.569285700655133E-16
rhumerus -27.059511666146957 -16.099177322774914 -77.65264828488553
rradius 28.56199774226812
rwrist 4.799153560559287
rhand -18.009988290662804 21.01195025904993
rfingers 7.125020000000004
rthumb 8.26278313860113 -8.775253201350854
lclavicle -7.411525493386574E-16 -1.9032106024117175E-16
lhumerus -29.15467043519389 -2.7607482211986145 82.20396922612427
lradius 34.75231208919812
lwrist 5.921109293355657
lhand -24.902225836037655 24.325014270689458
lfingers 7.123342607255267
lthumb 1.5833097371571174 53.699912208819065
rfemur -2.5214149665072725 7.605280538000343 31.398645290645305
rtibia 26.95919904783328
rfoot -14.238078031848856 -5.832584252490053
rtoes 2.684014689911824
lfemur -20.951378254039913 0.008682742061905113 -12.581846978951027
ltibia 49.751158321038254
lfoot 1.2457571348533651 -5.35664438944907
ltoes -4.9890533038537015
